# xmcd
#
# Track frame offsets:
#	150
#	25621
#	41697
#	55582
#	70871
#	83810
#	101648
#	121241
#	139240
#	163136
#	176763
#	192238
#	206392
#	224720
#
# Disc length: 3187 seconds
#
# Revision: 1
# Processed by: cddbd v1.5.2PL0 Copyright (c) Steve Scherf et al.
# Submitted via: EasyCDDAExtractor 7.0.3.1
#
DISCID=c80c710e
DTITLE=Sean Kenny - Line Dance Crazy - 2
DYEAR=1900
DGENRE=Country
TTITLE0=1999
TTITLE1=If I Never Stop Loving You
TTITLE2=Burning Love
TTITLE3=Pascagoula Run
TTITLE4=Let Her Rip
TTITLE5=King Of the Road
TTITLE6=Dance the Night Away
TTITLE7=Two Pina Coladas
TTITLE8=Walkin' On Me
TTITLE9=Billy B Bad
TTITLE10=New Train
TTITLE11=Move It On Over
TTITLE12=One Night At A Time
TTITLE13=Country Down To My Soul
EXTD=
EXTT0=
EXTT1=
EXTT2=
EXTT3=
EXTT4=
EXTT5=
EXTT6=
EXTT7=
EXTT8=
EXTT9=
EXTT10=
EXTT11=
EXTT12=
EXTT13=
PLAYORDER=
